# xmcd
#
# Track frame offsets:
# 150
# 19992
# 47688
# 75404
# 99195
# 145729
# 169129
# 207546
#
# Disc length: 3198 seconds
#
#
# Revision: 3
# Processed by: cddbd v1.5.2PL0 Copyright (c) Steve Scherf et al.
# Submitted via: FreeRIP 2.945 
#
DISCID=610c7c08
DTITLE=Loreena McKennitt - The Book Of Secrets
DYEAR=1997
DGENRE=Folklore
TTITLE0=Prologue
TTITLE1=The Mummers` Dance
TTITLE2=Skelling
TTITLE3=Marco Polo
TTITLE4=The Highwayman
TTITLE5=La Serenissima
TTITLE6=Night Ride Across The Caucasus
TTITLE7=Dante`s Praver
EXTD=
EXTT0=
EXTT1=
EXTT2=
EXTT3=
EXTT4=
EXTT5=
EXTT6=
EXTT7=
PLAYORDER=
